<?xml version="1.0" encoding="UTF-8"?>
<svg width="2571px" height="399px" viewBox="0 0 2571 399" version="1.1" xmlns="http://www.w3.org/2000/svg" xmlns:xlink="http://www.w3.org/1999/xlink">
    <!-- Generator: Sketch 53 (72520) - https://sketchapp.com -->
    <title>Group 23</title>
    <desc>Created with Sketch.</desc>
    <g id="Page-1" stroke="none" stroke-width="1" fill="none" fill-rule="evenodd">
        <g id="Group-23" transform="translate(0.000000, -1.000000)" fill="#FFFFFF">
            <path d="M0,306.9609 L27.898,306.9609 C29.21,312.2269 30.269,316.8769 31.531,321.4719 C35.98,337.6699 46.019,349.7969 59.727,358.9429 C78.255,371.3029 98.761,374.8569 120.735,372.4349 C132.94,371.0899 144.616,368.3719 155.631,362.9979 C168.674,356.6339 178.682,347.2719 183.896,333.4229 C188.532,321.1119 188.625,308.6809 184.064,296.3609 C179.829,284.9179 170.612,278.4069 160.058,273.6209 C148.986,268.5999 137.235,265.6199 125.48,262.5969 C105.698,257.5069 85.894,252.4169 66.365,246.4549 C53.499,242.5259 41.154,237.0709 30.029,229.0949 C18.661,220.9429 11.353,210.2929 8.266,196.7419 C4.005,178.0419 6.136,160.0509 14.77,142.9039 C22.013,128.5189 33.533,118.4439 47.659,111.2479 C63.969,102.9399 81.459,99.5649 99.677,99.2679 C111.212,99.0779 122.631,99.9089 133.899,102.3099 C157.142,107.2609 176.96,117.8729 191.084,137.6089 C198.856,148.4669 203.606,160.6069 206.01,173.6979 C206.688,177.3859 207.292,181.0899 208.016,185.2939 L179.974,185.2939 C178.762,180.1659 177.766,175.1499 176.384,170.2439 C169.898,147.2139 154.467,133.3639 131.862,126.6559 C120.037,123.1469 107.961,122.2329 95.825,122.8019 C79.61,123.5619 64.197,127.4769 51.226,137.9239 C44.047,143.7059 39.14,151.3239 36.602,160.1309 C33.733,170.0839 34.104,180.1989 36.957,190.1819 C40.837,203.7629 50.537,211.9399 62.745,217.6729 C73.023,222.5019 83.933,225.4889 94.908,228.2259 C112.609,232.6379 130.419,236.6509 147.997,241.5049 C163.429,245.7669 178.247,251.7649 191.204,261.5019 C205.375,272.1539 213.604,286.1339 214.979,304.0559 C215.514,311.0369 215.94,317.8839 215.134,324.9309 C213.733,337.1749 209.57,348.1459 202.387,358.0439 C191.201,373.4579 175.694,382.6549 158.1,388.9489 C142.384,394.5719 126.061,396.3639 109.569,396.4589 C92.856,396.5549 76.302,394.4649 60.563,388.5619 C38.253,380.1919 20.533,366.1119 9.751,344.4849 C5.838,336.6369 2.777,328.3019 1.854,319.3779 C1.697,317.8569 0.641,316.4299 0,314.9609 L0,306.9609 Z" id="Fill-1"></path>
            <path d="M2182.1582,108.314 L2231.3202,108.314 C2231.4732,110.161 2231.7352,111.91 2231.7432,113.662 C2231.7862,123.327 2231.7382,132.992 2231.7912,142.656 C2231.8022,144.552 2231.1542,146.821 2233.6932,147.811 C2236.0462,148.729 2238.5612,147.606 2240.4782,145.19 C2246.4712,137.637 2252.1612,129.79 2258.6922,122.726 C2267.2202,113.506 2278.0522,107.725 2290.0802,104.074 C2310.2722,97.947 2330.4412,98.129 2350.4282,104.554 C2372.0902,111.519 2387.0442,125.688 2394.4662,147.438 C2394.7742,148.341 2395.1572,149.22 2395.8902,151.097 C2397.6312,149.043 2399.0792,147.625 2400.1902,145.98 C2408.5742,133.566 2418.7912,122.907 2430.9782,114.234 C2441.6002,106.675 2453.5132,102.657 2466.4982,100.857 C2478.7052,99.166 2490.7672,99.355 2502.7912,101.227 C2523.2692,104.416 2541.5322,112.088 2554.2672,129.45 C2559.9362,137.179 2563.4292,145.97 2565.6842,155.291 C2568.8672,168.449 2570.3382,181.815 2570.3592,195.304 C2570.4582,259.293 2570.4212,323.281 2570.4222,387.268 C2570.4222,388.422 2570.2772,389.577 2570.2032,390.672 C2566.6372,391.92 2527.4372,392.401 2517.2532,391.291 C2517.1302,389.67 2516.8832,387.926 2516.8822,386.183 C2516.8642,329.694 2516.9252,273.204 2516.8162,216.714 C2516.7992,207.572 2516.6592,198.35 2515.4762,189.308 C2513.8472,176.848 2510.6972,164.747 2500.9852,155.597 C2493.2472,148.307 2483.7872,144.98 2473.4882,144.036 C2467.7052,143.507 2461.7952,143.481 2456.0102,143.993 C2438.8892,145.512 2424.5742,152.288 2415.4492,167.569 C2407.8862,180.233 2403.6682,194.125 2403.5272,208.803 C2402.9612,267.605 2402.7912,326.411 2402.4742,385.215 C2402.4722,385.548 2402.4832,385.881 2402.4822,386.214 C2402.4702,391.467 2402.3242,391.657 2397.2652,391.693 C2391.4332,391.734 2385.6012,391.701 2379.7692,391.701 C2371.6032,391.701 2363.4382,391.715 2355.2732,391.688 C2353.6482,391.682 2352.0252,391.512 2349.9732,391.394 C2349.8452,388.777 2349.6372,386.502 2349.6372,384.228 C2349.6172,325.239 2349.7242,266.25 2349.5352,207.261 C2349.4932,194.442 2347.9712,181.729 2343.1192,169.612 C2337.9682,156.752 2328.9092,148.875 2315.3452,145.519 C2306.5612,143.345 2297.7342,143.089 2289.0882,144.307 C2276.5992,146.064 2265.8462,152.065 2256.9512,161.17 C2248.6272,169.693 2243.2662,179.94 2239.6132,191.139 C2236.0792,201.973 2234.7772,213.147 2234.7872,224.521 C2234.8322,278.344 2234.8322,332.167 2234.8362,385.991 C2234.8362,387.626 2234.6992,389.264 2234.6072,391.293 L2182.1582,391.293 L2182.1582,108.314 Z" id="Fill-3"></path>
            <path d="M1067.1455,303.3638 L1118.7185,303.3638 C1120.7425,309.7548 1122.2165,315.9098 1124.6195,321.6768 C1129.5975,333.6328 1138.5695,341.8648 1150.4605,346.7218 C1160.5275,350.8338 1171.0225,353.2688 1182.0095,353.0938 C1187.1725,353.0108 1192.3425,353.2078 1197.5015,353.0288 C1211.6065,352.5398 1224.7945,348.8778 1236.1245,340.2488 C1246.6545,332.2288 1251.1905,321.3968 1250.3205,308.0368 C1249.4515,294.6698 1241.5305,287.1188 1230.3405,281.7998 C1219.8915,276.8308 1208.6325,274.5348 1197.5395,271.6728 C1178.1035,266.6588 1158.6045,261.8638 1139.2735,256.4688 C1127.2355,253.1108 1115.7625,248.0558 1105.0745,241.5208 C1090.2445,232.4518 1079.8275,219.8948 1076.4325,202.4648 C1074.5575,192.8368 1073.8105,183.2278 1075.2865,173.2438 C1077.2535,159.9278 1081.3985,147.7978 1089.3715,136.9998 C1095.5835,128.5868 1103.2935,121.7578 1112.2955,116.4988 C1128.0645,107.2878 1145.1375,102.1188 1163.3625,101.0028 C1172.8055,100.4238 1182.2935,99.6758 1191.7245,100.0128 C1211.9765,100.7378 1231.5965,104.5898 1249.8635,113.9208 C1269.0025,123.6968 1283.1805,138.1578 1290.9395,158.3008 C1293.9085,166.0078 1295.9635,174.1368 1295.8195,182.5808 C1295.8005,183.7048 1295.6065,184.8258 1295.4585,186.2898 L1244.5275,186.2898 C1243.5125,183.0338 1242.3885,179.6198 1241.3815,176.1708 C1236.8725,160.7188 1225.8855,151.7878 1211.3695,146.5408 C1197.6455,141.5808 1183.4885,140.9408 1169.0775,142.4228 C1162.5745,143.0898 1156.1285,143.8948 1150.2375,146.7458 C1145.9405,148.8258 1141.5555,151.1178 1137.9635,154.1958 C1124.2985,165.9048 1126.4775,187.8418 1140.4395,198.7848 C1149.3065,205.7338 1159.7605,209.1438 1170.3915,211.8898 C1182.9195,215.1268 1195.6505,217.5728 1208.2135,220.6878 C1221.5785,224.0008 1234.9875,227.2458 1248.1195,231.3488 C1261.3625,235.4878 1273.8675,241.4678 1284.2635,250.9918 C1294.5705,260.4328 1300.4725,272.2518 1302.9505,285.9838 C1306.6405,306.4438 1304.2295,326.0718 1295.3085,344.8168 C1287.9705,360.2328 1276.1755,371.4478 1261.3145,379.5418 C1248.9585,386.2708 1235.7535,390.3748 1221.9315,393.1178 C1209.7475,395.5348 1197.4855,396.1008 1185.2175,396.2388 C1174.7685,396.3568 1164.1865,395.9398 1153.8745,394.3738 C1134.6705,391.4588 1116.3315,385.6908 1100.4625,373.8318 C1088.3155,364.7528 1079.2255,353.2748 1073.6045,339.1538 C1069.6475,329.2118 1067.1275,318.9298 1066.9165,308.1698 C1066.8885,306.7118 1067.0495,305.2508 1067.1455,303.3638" id="Fill-6"></path>
            <path d="M1446.6123,148.6929 L1440.3093,148.6929 C1425.9813,148.6889 1411.6523,148.6689 1397.3243,148.6889 C1392.0083,148.6959 1391.7013,148.9789 1391.6993,154.3829 C1391.6753,205.3679 1391.5883,256.3519 1391.7633,307.3359 C1391.7913,315.1059 1392.5993,322.9489 1393.8703,330.6219 C1395.7793,342.1569 1405.2063,349.0129 1417.0783,350.3079 C1425.1433,351.1879 1433.0043,350.0869 1440.9563,350.0579 C1442.5773,350.0519 1444.1993,350.0569 1446.0953,350.0569 C1446.3043,351.7889 1446.5883,353.0649 1446.5913,354.3419 C1446.6233,365.1719 1446.6323,376.0029 1446.5863,386.8319 C1446.5673,391.2419 1446.5023,391.2809 1442.2593,391.7199 C1430.8633,392.9009 1419.5583,395.0049 1408.0083,394.6369 C1396.3383,394.2669 1384.7963,393.3219 1373.5603,389.8269 C1356.0273,384.3739 1345.5393,372.6929 1341.9843,354.7079 C1339.6223,342.7559 1338.8233,330.6999 1338.8303,318.5229 C1338.8923,221.0539 1338.8533,123.5849 1338.8453,26.1139 L1338.8453,20.7689 L1391.6893,20.7689 L1391.6893,26.7909 C1391.6893,50.9509 1391.6873,75.1099 1391.6873,99.2699 C1391.6873,100.4349 1391.6563,101.6029 1391.7013,102.7679 C1391.8733,107.3029 1392.3873,107.9079 1397.0523,107.9269 C1411.2153,107.9859 1425.3773,107.9539 1439.5393,107.9439 C1446.6213,107.9389 1446.6173,107.9259 1446.6143,114.9849 C1446.6103,124.1499 1446.6123,133.3139 1446.6123,142.4779 L1446.6123,148.6929 Z" id="Fill-8"></path>
            <path d="M1531.5938,108.2661 L1531.5938,114.3071 C1531.5938,129.3031 1531.5728,144.3001 1531.6098,159.2961 C1531.6208,163.4381 1533.3318,165.1171 1536.4588,163.7981 C1537.7138,163.2691 1538.6658,161.5231 1539.3048,160.1251 C1541.3018,155.7481 1542.8638,151.1651 1544.9918,146.8591 C1552.2708,132.1321 1563.0118,120.4571 1577.3888,112.5471 C1586.8888,107.3191 1597.0208,103.5891 1608.2368,103.8971 C1616.0488,104.1111 1623.8788,103.6871 1631.3968,106.5821 C1633.3598,107.3371 1634.5188,108.2251 1634.5088,110.4321 C1634.4588,122.5951 1634.4568,134.7581 1634.4068,146.9201 C1634.4048,147.3711 1634.0538,147.8211 1633.6598,148.7661 C1631.6668,148.6441 1629.5508,148.5581 1627.4438,148.3791 C1605.3558,146.5041 1586.0688,153.1581 1569.4358,167.6181 C1552.1608,182.6351 1542.0128,201.8351 1538.0658,224.1211 C1536.1028,235.2081 1534.9868,246.5831 1534.8908,257.8381 C1534.5288,300.1591 1534.7438,342.4851 1534.7428,384.8091 L1534.7428,391.5871 C1517.1268,391.8241 1499.9268,391.6311 1482.2248,391.7361 C1482.0378,389.1121 1481.7588,387.0211 1481.7588,384.9311 C1481.7418,312.6141 1481.7518,240.2961 1481.7588,167.9791 C1481.7598,149.8171 1481.7578,131.6551 1481.7678,113.4921 C1481.7708,108.0041 1481.7868,107.9721 1487.3588,107.9621 C1500.3558,107.9401 1513.3528,107.9421 1526.3498,107.9591 C1527.8178,107.9611 1529.2858,108.1261 1531.5938,108.2661" id="Fill-10"></path>
            <path d="M1001.7612,280.1958 C1001.1932,299.8408 996.4382,318.4178 984.1522,334.3318 C972.0392,350.0198 956.0322,360.0798 937.2272,365.8318 C923.4642,370.0418 909.3362,372.3668 894.9572,371.7858 C880.3772,371.1978 866.2502,368.3678 853.7792,360.0288 C842.0492,352.1868 834.6172,341.6018 831.3582,327.6938 C824.6592,299.1108 840.0602,274.8418 863.7872,263.8418 C875.6072,258.3628 888.0692,254.9338 900.8652,252.4238 C914.6252,249.7238 928.5512,249.0258 942.4472,247.7088 C961.3012,245.9228 980.1572,243.7768 998.0192,236.7738 C998.6032,236.5448 999.2932,236.5868 1000.5172,236.4268 C1000.7552,237.6838 1001.0212,238.4718 1001.0382,239.2658 C1001.3412,252.9088 1002.1562,266.5708 1001.7612,280.1958 M1027.6392,328.7098 C1027.4232,278.4128 1027.0882,228.1188 1026.9112,177.8218 C1026.8752,167.6998 1024.8152,158.0228 1021.3952,148.6048 C1017.2632,137.2248 1010.3732,127.7318 1000.8242,120.2818 C986.0742,108.7758 968.8502,103.4098 950.6262,101.2728 C937.0862,99.6848 923.4832,99.3758 909.7842,100.7648 C894.2102,102.3438 879.3942,106.0378 865.4232,113.0298 C841.7092,124.8988 825.5942,143.2188 818.7062,169.0618 C817.1502,174.8978 815.2132,180.8648 816.6902,187.7808 C824.6212,187.7808 832.1062,187.7498 839.5912,187.7998 C841.9122,187.8138 842.7652,186.6818 843.0462,184.4988 C843.4892,181.0418 843.9632,177.5578 844.8262,174.1898 C848.4042,160.2318 855.3792,148.4318 867.0552,139.6258 C881.1502,128.9948 897.5342,125.1748 914.6322,123.7998 C921.7512,123.2278 928.9532,123.6208 936.1162,123.6748 C947.1802,123.7568 957.8772,125.7088 968.3102,129.5248 C984.1192,135.3088 993.6912,146.4128 998.1642,162.4848 C1001.0702,172.9278 1001.2132,183.5058 1000.9982,194.1738 C1000.7032,208.8538 994.2232,217.3718 979.8732,221.1828 C973.1522,222.9678 966.3022,224.3558 959.4392,225.4948 C949.3062,227.1758 939.1522,228.9068 928.9342,229.8378 C912.3922,231.3438 895.8502,232.5458 879.4772,235.6348 C865.5062,238.2708 852.0632,242.1288 839.4862,248.8918 C820.6752,259.0088 808.1022,274.3488 803.5392,295.0528 C799.8532,311.7718 800.3762,328.8858 806.3442,345.2668 C810.0812,355.5268 815.8912,364.6698 824.0262,372.1218 C839.2722,386.0858 857.8622,392.5558 877.9272,394.3948 C895.5072,396.0068 913.0702,395.0808 930.3062,390.0658 C947.4872,385.0668 963.1522,377.3058 976.9032,365.9708 C984.0762,360.0588 990.5162,353.2598 997.3052,346.8818 C998.6262,345.6398 1000.0282,344.4858 1002.2662,342.5278 C1002.3082,352.5508 1001.6442,361.2028 1003.9472,369.6688 C1005.9792,377.1338 1008.3182,384.4028 1014.4152,389.6618 C1018.0502,392.7988 1022.1092,395.1918 1027.6542,395.4688 L1027.6542,389.6858 C1027.6542,369.3608 1027.7262,349.0338 1027.6392,328.7098" id="Fill-12"></path>
            <path d="M730.8652,271.6225 C729.2172,282.4225 727.1072,293.2865 723.7742,303.6655 C716.8562,325.2045 704.5262,343.1315 684.9082,355.1985 C674.1342,361.8275 662.3932,365.9025 649.5702,366.1355 C643.9542,366.2375 638.3252,366.3925 632.7222,366.1245 C611.9252,365.1315 595.7632,355.0585 582.6702,339.6235 C569.0742,323.5985 561.9732,304.5185 557.9842,284.1675 C554.7322,267.5795 553.7112,250.7545 554.9762,233.9555 C556.9212,208.1425 562.4262,183.1385 577.8062,161.6315 C589.0142,145.9615 603.3822,134.0365 622.9452,130.0635 C628.9432,128.8455 635.0872,128.3395 638.4382,127.8805 C674.7672,128.7405 699.6252,143.7995 715.8352,173.1735 C722.0772,184.4855 726.4482,196.4585 728.3132,209.2455 C729.9872,220.7205 731.9932,232.2115 732.5832,243.7605 C733.0542,253.0045 732.2662,262.4465 730.8652,271.6225 M763.9042,0.9995 L732.9082,0.9995 C732.8892,46.4775 732.8722,91.9565 732.8522,137.4355 C732.8492,143.9315 732.8742,150.4295 732.7982,156.9255 C732.7842,158.0725 732.3312,159.2135 732.0802,160.3585 C730.4052,159.1275 729.6222,157.9015 729.1072,156.5715 C721.4842,136.9295 707.8432,122.6395 689.6862,112.4575 C677.4732,105.6105 664.3092,101.9505 650.3222,100.8615 C633.2042,99.5285 616.5222,100.9575 600.3042,106.9365 C579.0752,114.7635 562.7542,128.7415 550.0422,147.0985 C539.3072,162.6015 532.8432,179.9535 528.6972,198.2895 C525.7522,211.3115 524.0432,224.5075 523.3812,237.7685 C522.4802,255.7575 524.1362,273.6155 527.6392,291.3415 C530.9552,308.1105 536.0892,324.1495 544.5262,339.0455 C553.1862,354.3325 564.5142,367.2265 579.2232,377.0045 C588.5792,383.2235 598.6462,387.6825 609.5952,390.4695 C620.3232,393.2005 631.2422,394.4685 642.1412,394.2805 C655.4822,394.0505 668.4952,390.9805 680.8392,385.6645 C703.6942,375.8185 721.4152,360.5015 731.9002,337.5115 C732.3242,336.5815 733.1312,335.8275 733.7602,334.9905 C734.1412,335.0655 734.5232,335.1415 734.9052,335.2165 C735.0232,336.5505 735.2432,337.8835 735.2442,339.2175 C735.2502,353.5425 735.1892,367.8685 735.2232,382.1935 C735.2342,386.4775 735.5672,386.7675 739.7642,386.8325 C744.2612,386.9005 748.7602,386.8335 753.2582,386.8295 C756.5382,386.8265 759.8172,386.8285 763.5032,386.8285 C763.6592,384.3835 763.8692,382.6035 763.8722,380.8225 C763.8932,366.1635 763.8722,351.5035 763.8732,336.8445 C763.8832,224.8945 763.8932,112.9475 763.9042,0.9995" id="Fill-14"></path>
            <path d="M440.0229,319.8315 C429.6989,338.8205 415.3549,353.6355 395.0079,361.9265 C381.5829,367.3955 367.6519,368.3035 353.3759,366.4505 C324.4579,362.6985 305.1459,345.6445 291.1809,321.4405 C281.9289,305.4025 276.9769,287.8965 274.6599,269.5435 C272.6659,253.7485 272.6589,237.9315 275.1389,222.3205 C278.4279,201.6275 285.0319,181.9355 297.4629,164.7015 C308.9849,148.7275 323.6259,136.3395 342.9919,131.6975 C376.5169,123.6635 406.8279,132.2615 429.5449,160.5715 C439.2719,172.6935 445.5949,186.4625 450.1879,201.2095 C454.9749,216.5785 456.7609,232.3355 457.3129,247.9175 C456.5849,273.3825 452.1359,297.5535 440.0229,319.8315 M487.9549,237.3205 C486.7269,217.9655 483.6649,199.0875 476.7649,180.9205 C467.8789,157.5275 454.1679,137.7085 433.9189,122.6175 C419.9179,112.1815 404.3109,105.3775 387.2069,102.5745 C378.4109,101.1335 369.3139,101.1345 360.3549,101.1595 C341.9049,101.2115 324.5739,105.7835 308.3909,114.8275 C284.6589,128.0875 268.0419,147.7105 257.1009,172.2415 C246.3009,196.4535 241.6859,222.0005 242.0649,248.4775 C241.7119,268.7675 244.8019,288.5385 250.9899,307.8445 C257.1619,327.1005 266.5349,344.5385 280.3709,359.4175 C295.1579,375.3185 313.1149,386.3655 334.1329,391.3335 C355.8939,396.4755 377.8619,396.3315 399.6829,390.1605 C417.0539,385.2485 432.0479,376.4975 445.1069,364.2355 C463.8909,346.6015 475.0859,324.5115 481.6059,299.9985 C487.0559,279.5135 489.3059,258.6295 487.9549,237.3205" id="Fill-17"></path>
            <path d="M1688.7002,222.5742 C1688.9332,218.2602 1689.1352,213.8762 1690.0712,209.6832 C1692.0252,200.9312 1694.5272,192.3042 1698.7472,184.3072 C1707.6892,167.3602 1720.3432,154.4912 1738.6722,147.7402 C1750.3592,143.4352 1762.5922,142.2912 1774.5512,144.3182 C1795.9632,147.9482 1811.7522,160.4122 1822.7672,178.9932 C1830.3782,191.8312 1833.7022,206.0242 1835.7502,220.6012 C1835.9332,221.9092 1836.1522,223.3812 1835.7322,224.5532 C1835.3692,225.5702 1834.2572,226.6372 1833.2312,227.0122 C1832.0512,227.4442 1830.6012,227.1532 1829.2692,227.1532 C1807.1072,227.1562 1784.9452,227.1552 1762.7832,227.1562 L1695.7952,227.1562 C1694.9632,227.1562 1694.1292,227.1852 1693.2962,227.1592 C1689.0552,227.0272 1688.4812,226.6182 1688.7002,222.5742 M1695.9822,262.8092 C1758.1312,262.8042 1820.2792,262.8032 1882.4292,262.8022 L1889.1192,262.8022 C1889.6202,257.2722 1890.6402,252.3112 1890.3922,247.4172 C1889.8892,237.4792 1888.9742,227.5432 1887.7322,217.6692 C1885.3372,198.6362 1878.8842,180.8872 1869.7432,164.0922 C1860.7752,147.6132 1848.7612,133.7192 1833.7312,122.5002 C1820.7692,112.8242 1806.4122,105.9282 1790.6012,102.4692 C1774.6872,98.9882 1758.5702,98.5562 1742.4902,101.2912 C1724.6682,104.3232 1708.3192,111.1352 1693.8092,121.9492 C1668.9022,140.5122 1653.0692,165.3932 1643.8042,194.7542 C1639.3262,208.9452 1637.1502,223.5092 1635.9172,238.3082 C1635.1242,247.8282 1635.6272,257.1762 1636.3812,266.6692 C1637.4352,279.9732 1639.2362,293.0582 1642.7392,305.9192 C1648.2412,326.1092 1657.2822,344.3792 1671.2812,360.1522 C1691.4902,382.9242 1717.0922,395.3802 1746.9312,398.4272 C1763.2322,400.0912 1779.7422,399.9412 1796.0782,396.1232 C1814.2642,391.8742 1830.7032,384.3982 1845.0922,372.5922 C1861.4322,359.1862 1872.8152,342.1842 1880.0962,322.4282 C1881.8392,317.7012 1882.9822,312.7552 1884.4752,307.6572 C1883.0862,307.4542 1882.4432,307.2782 1881.8032,307.2772 C1867.3062,307.2512 1852.8092,307.3002 1838.3152,307.1872 C1835.3222,307.1642 1833.9272,308.4192 1832.8322,311.1182 C1829.0572,320.4212 1824.1902,329.0922 1817.2002,336.4482 C1805.2852,348.9842 1790.0042,354.0652 1773.4182,355.7242 C1761.2402,356.9432 1749.2192,355.3572 1737.6902,351.0272 C1721.5762,344.9732 1709.6122,334.0322 1701.3542,319.1032 C1692.9712,303.9492 1689.6012,287.3722 1688.6572,270.2572 C1688.2482,262.8442 1688.4742,262.8092 1695.9822,262.8092" id="Fill-19"></path>
            <path d="M2093.8809,282.4214 C2093.8169,310.6654 2080.1139,330.5964 2055.9529,343.8894 C2045.6509,349.5574 2034.3639,351.9784 2022.6679,353.2804 C2015.6099,354.0674 2008.6579,354.0394 2001.8369,352.8754 C1984.8479,349.9794 1969.2749,341.4644 1965.1309,318.9484 C1963.2239,308.5884 1964.3219,298.8304 1968.3609,289.2574 C1972.2629,280.0114 1979.4429,274.0284 1988.1829,269.7614 C1996.4439,265.7294 2005.2289,263.6064 2014.3799,262.4164 C2025.2199,261.0054 2035.9389,258.6764 2046.7419,256.9434 C2059.2389,254.9414 2071.4859,252.0744 2083.1589,247.0894 C2086.4569,245.6804 2089.6259,243.9734 2093.5959,242.0434 C2093.7229,244.3164 2093.8849,245.8934 2093.8869,247.4694 C2093.9039,259.1204 2093.9079,270.7714 2093.8809,282.4214 M2146.7149,180.6184 C2146.6929,172.8674 2145.7349,164.9984 2144.1619,157.4004 C2141.7219,145.6084 2136.0069,135.2484 2127.4669,126.6804 C2116.4729,115.6484 2102.7359,109.3784 2087.9759,105.3834 C2074.4669,101.7294 2060.5169,100.8454 2046.5959,99.8514 C2036.7339,99.1474 2027.0019,99.9934 2017.2099,100.8864 C2000.3339,102.4234 1984.1559,106.3384 1969.0939,114.2084 C1952.6639,122.7904 1939.9909,135.0394 1932.4019,152.2554 C1927.5569,163.2504 1925.7249,174.8144 1925.1209,186.6644 C1925.0579,187.9224 1925.4179,189.2024 1925.5939,190.5674 L1974.1869,190.5674 C1974.4009,188.9784 1974.5759,188.0044 1974.6559,187.0234 C1975.6859,174.4364 1979.9669,163.4804 1990.0639,155.2384 C2000.1759,146.9844 2012.1929,143.7784 2024.7239,142.9284 C2037.6519,142.0534 2050.5769,142.5484 2063.4069,145.5664 C2090.6679,151.9794 2101.2359,174.6244 2094.4829,199.1574 C2093.2269,203.7214 2090.4909,207.4274 2086.4059,210.2104 C2079.7239,214.7624 2072.0389,216.5054 2064.4019,217.8444 C2050.5069,220.2814 2036.4539,221.8084 2022.5079,223.9784 C2010.8819,225.7864 1999.2159,227.5324 1987.7449,230.0994 C1972.4719,233.5184 1957.6159,238.2504 1944.3439,247.0434 C1933.8409,254.0004 1925.4929,262.7194 1920.0539,274.1764 C1915.9259,282.8684 1914.3009,292.1104 1912.9259,301.5474 C1910.7899,316.2024 1912.4289,330.4714 1916.7979,344.3674 C1922.9759,364.0144 1935.9109,378.1464 1954.6649,386.4564 C1971.3329,393.8434 1988.9579,396.1994 2007.2009,395.0314 C2018.2399,394.3244 2028.9319,392.4874 2039.3149,388.7724 C2056.8699,382.4904 2072.0579,372.6144 2084.5179,358.6864 C2088.6719,354.0414 2092.6539,349.2414 2097.1899,343.9644 C2097.5519,345.7024 2097.8569,346.7494 2097.9789,347.8164 C2098.5439,352.7554 2098.8659,357.7314 2099.6319,362.6384 C2101.3909,373.9134 2107.8949,381.6514 2118.1029,386.3874 C2125.9349,390.0204 2134.3989,390.8304 2142.8469,391.6024 C2143.9369,391.7014 2145.0689,391.3394 2146.8329,391.1044 L2146.8329,381.5464 C2146.8309,314.5704 2146.9099,247.5934 2146.7149,180.6184" id="Fill-21"></path>
        </g>
    </g>
</svg>