<?xml version="1.0" encoding="UTF-8"?>
<svg width="253px" height="40px" viewBox="0 0 253 40" version="1.1" xmlns="http://www.w3.org/2000/svg" xmlns:xlink="http://www.w3.org/1999/xlink">
    <!-- Generator: Sketch 53 (72520) - https://sketchapp.com -->
    <title>Group 23</title>
    <desc>Created with Sketch.</desc>
    <g id="Page-1" stroke="none" stroke-width="1" fill="none" fill-rule="evenodd">
        <g id="Startseite" transform="translate(-564.000000, -140.000000)" fill="#0086BF">
            <g id="Group-23" transform="translate(564.000000, 140.000000)">
                <path d="M0,30.9661792 L2.71756818,30.9661792 C2.84537123,31.4977043 2.94852933,31.9670532 3.07146183,32.4308507 C3.50484275,34.0657999 4.48275037,35.2898418 5.81805844,36.2129956 C7.62288686,37.4605553 9.62039396,37.8192792 11.7609002,37.574814 C12.9497997,37.4390561 14.087169,37.1647141 15.1601496,36.622288 C16.4306794,35.9799361 17.4055673,35.0349802 17.9134675,33.6371279 C18.3650643,32.394514 18.3741235,31.1397879 17.9298326,29.8962655 C17.5172976,28.7412634 16.6194617,28.084074 15.5913875,27.6009979 C14.5128544,27.094202 13.3681794,26.7934149 12.2231147,26.4882876 C10.2961331,25.9745272 8.36700842,25.4607667 6.46467173,24.8589908 C5.21138361,24.4624162 4.00884654,23.9118143 2.92515072,23.1067548 C1.81778406,22.2839306 1.1059055,21.2089701 0.80519817,19.8411965 C0.390130495,17.9537072 0.597713038,16.1377811 1.4387584,14.4070443 C2.14430526,12.9550907 3.26647837,11.938168 4.64250418,11.2118379 C6.23127531,10.3732678 7.93499126,10.0326113 9.70962231,10.0026336 C10.8332566,9.98345587 11.9455912,10.0673331 13.0432168,10.3096786 C15.3073374,10.8094091 17.2378258,11.880534 18.6136568,13.8725921 C19.370734,14.9685471 19.8334356,16.1939011 20.0676113,17.5152445 C20.1336559,17.8874937 20.192492,18.2613579 20.2630175,18.6856897 L17.5314221,18.6856897 C17.4133602,18.1680937 17.316339,17.6618025 17.1817172,17.1666141 C16.5499103,14.8420752 15.0467633,13.444122 12.8447908,12.7670483 C11.6929074,12.4128665 10.5165739,12.3206117 9.33439567,12.3780438 C7.75487858,12.4547546 6.25348499,12.8499161 4.98996872,13.9043867 C4.29065616,14.4879944 3.81266107,15.2569191 3.5654323,16.1458559 C3.28596055,17.1504645 3.32209997,18.1714246 3.60001316,19.1790612 C3.9779673,20.5498629 4.92285264,21.3752105 6.11204442,21.9538723 C7.11323324,22.4412886 8.17598573,22.7427822 9.24506992,23.019042 C10.9693396,23.4643684 12.704227,23.8694215 14.4165151,24.3593613 C15.9197595,24.7895473 17.3631936,25.394957 18.6253461,26.3777635 C20.0057554,27.4529258 20.8073494,28.8640007 20.9412893,30.6729623 C20.9934041,31.3775913 21.0349011,32.068695 20.956388,32.7799857 C20.8199154,34.015837 20.414394,35.1231977 19.7146918,36.1222548 C18.6250539,37.6780708 17.1145037,38.6063723 15.400657,39.2416588 C13.8697479,39.8092177 12.2797104,39.9900937 10.6732105,39.9996826 C9.04518283,40.0093724 7.43264345,39.7984177 5.89949392,39.2025969 C3.72625763,38.3577688 2.00013719,36.9366004 0.949853297,34.7536737 C0.568684602,33.9615338 0.270509959,33.1202385 0.180599735,32.2194923 C0.16530623,32.0659698 0.0624403614,31.9219351 0,31.7736613 L0,30.9661792 Z" id="Fill-1"></path>
                <path d="M215,10.8641472 L219.811487,10.8641472 C219.826461,11.0473883 219.852103,11.2209068 219.852886,11.3947229 C219.857095,12.3535887 219.852397,13.3124545 219.857584,14.2712211 C219.858661,14.4593234 219.795241,14.6844312 220.043733,14.7826492 C220.274021,14.8737241 220.520164,14.7623111 220.707781,14.5226195 C221.294316,13.7732855 221.851197,12.9947837 222.490386,12.2939634 C223.325022,11.3792461 224.38515,10.8057125 225.562331,10.4434963 C227.538523,9.83563593 229.512464,9.85369217 231.468593,10.4911172 C233.588654,11.1821156 235.052203,12.5878238 235.778594,14.7456438 C235.808738,14.8352306 235.846223,14.9224363 235.917961,15.1086537 C236.088353,14.9048761 236.230069,14.7641961 236.338803,14.6009955 C237.159345,13.3694011 238.159283,12.3119205 239.352026,11.4514711 C240.391601,10.7015418 241.557527,10.3029156 242.82837,10.1243374 C244.023069,9.95657306 245.203578,9.97532377 246.380367,10.1610451 C248.38455,10.4774262 250.171951,11.2385662 251.418326,12.9610523 C251.973151,13.7278472 252.315012,14.6000034 252.535708,15.5247409 C252.847229,16.8301476 252.991196,18.15619 252.993251,19.4944353 C253.00294,25.8427915 252.999319,32.1910485 252.999417,38.5392063 C252.999417,38.6536947 252.985226,38.7682824 252.977983,38.8769175 C252.628979,39.0007317 248.792473,39.0484518 247.795764,38.9383286 C247.783726,38.777509 247.759552,38.6044865 247.759454,38.4315633 C247.757693,32.827283 247.763663,27.2229035 247.752995,21.6185239 C247.751331,20.711545 247.737629,19.7966293 247.621849,18.8995715 C247.462419,17.6634134 247.154128,16.4628718 246.203614,15.5550992 C245.446296,14.8318574 244.520445,14.5017854 243.512481,14.408131 C242.946499,14.3556489 242.368087,14.3530694 241.801909,14.403865 C240.126276,14.5545652 238.725266,15.2268129 237.832202,16.7428427 C237.09201,17.9992396 236.679195,19.3774666 236.665395,20.8336727 C236.61,26.667426 236.593363,32.5015762 236.562338,38.3355279 C236.562142,38.3685649 236.563219,38.4016018 236.563121,38.4346388 C236.561946,38.9557896 236.547657,38.9746395 236.052533,38.978211 C235.481755,38.9822787 234.910976,38.9790047 234.340198,38.9790047 C233.540991,38.9790047 232.741883,38.9803937 231.942774,38.977715 C231.783735,38.9771197 231.624892,38.960254 231.424062,38.9485472 C231.411535,38.6889143 231.391178,38.4632113 231.391178,38.2376075 C231.389221,32.3853019 231.399693,26.5329963 231.381195,20.6806907 C231.377085,19.4089162 231.228126,18.147658 230.753261,16.945529 C230.249132,15.6696869 229.362528,14.8882088 228.035018,14.5552596 C227.175328,14.3395768 226.311429,14.314179 225.465244,14.435017 C224.242945,14.6093291 223.190549,15.2046891 222.319995,16.1079972 C221.505324,16.953565 220.980643,17.9701711 220.623124,19.0812252 C220.277251,20.1560676 220.149824,21.2646414 220.150803,22.3930573 C220.155207,27.7328435 220.155207,33.0726296 220.155598,38.4125149 C220.155598,38.5747235 220.14219,38.7372297 220.133186,38.938527 L215,38.938527 L215,10.8641472 Z" id="Fill-3"></path>
                <path d="M105.02247,30.5955361 L110.012707,30.5955361 C110.208551,31.242554 110.351176,31.8656795 110.583692,32.4495243 C111.065367,33.6599368 111.933503,34.4933355 113.084084,34.9850529 C114.058174,35.4013473 115.073677,35.6478641 116.136786,35.6301473 C116.636361,35.6217444 117.136614,35.6416885 117.635802,35.6235667 C119.000611,35.5740609 120.276691,35.203324 121.372989,34.3297334 C122.391879,33.5177973 122.830785,32.4211774 122.746603,31.0686255 C122.662518,29.715365 121.896077,28.9509099 120.813325,28.4124202 C119.802273,27.909364 118.712845,27.6769195 117.639479,27.3871737 C115.758839,26.8795618 113.872103,26.3941212 112.001623,25.8479372 C110.836818,25.507977 109.726683,24.9962143 108.692505,24.334618 C107.257544,23.4164823 106.249589,22.1452252 105.921086,20.380631 C105.73966,19.4059027 105.66738,18.433098 105.810199,17.4223287 C106.000527,16.0742313 106.4016,14.8462033 107.173072,13.7530255 C107.77415,12.9013025 108.520174,12.209942 109.391214,11.6775265 C110.917032,10.7450149 112.569027,10.221711 114.33249,10.1087283 C115.246201,10.050111 116.164266,9.97438429 117.076816,10.0085018 C119.036413,10.0819 120.934857,10.4718723 122.702384,11.4165326 C124.554286,12.4062442 125.926158,13.8702602 126.676924,15.9095156 C126.964207,16.6897639 127.16305,17.512735 127.149116,18.3675964 C127.147278,18.4813889 127.128506,18.5948778 127.114186,18.7430915 L122.186069,18.7430915 C122.087857,18.4134576 121.979098,18.067828 121.88166,17.718655 C121.445366,16.1543113 120.382257,15.2501465 118.977679,14.718946 C117.649736,14.216801 116.279895,14.1520081 114.885477,14.3020441 C114.256243,14.3695705 113.632524,14.4510678 113.062507,14.7396999 C112.646726,14.9502769 112.222431,15.1823165 111.874866,15.4939299 C110.552632,16.6793363 110.763473,18.9002143 112.114446,20.0080718 C112.972422,20.711581 113.983958,21.0568057 115.012621,21.3348077 C116.224838,21.6625181 117.456698,21.9101485 118.672302,22.2255077 C119.965509,22.5609122 121.262972,22.8894325 122.533633,23.3048157 C123.815034,23.7238436 125.025026,24.3292523 126.03095,25.2934517 C127.028262,26.2492483 127.599344,27.445791 127.839117,28.8360038 C128.196163,30.907352 127.962874,32.8944693 127.099672,34.7921928 C126.389642,36.3528919 125.24835,37.4882863 123.81039,38.307714 C122.614815,38.9889507 121.337091,39.4044352 119.999665,39.6821335 C118.820733,39.926828 117.634254,39.9841292 116.447194,39.9981002 C115.436142,40.0100464 114.412221,39.9678297 113.414425,39.8092896 C111.556233,39.5141782 109.78174,38.9302321 108.246245,37.7296399 C107.070893,36.8104918 106.191339,35.6484715 105.647447,34.2188768 C105.264565,33.2123595 105.020728,32.171421 105.000312,31.0820903 C104.997603,30.934484 105.013181,30.7865739 105.02247,30.5955361" id="Fill-6"></path>
                <path d="M142.999411,14.6586085 L142.356175,14.6586085 C140.893969,14.6582127 139.431661,14.6562336 137.969455,14.6582127 C137.426945,14.6589054 137.395615,14.6869094 137.39541,15.2216575 C137.392961,20.266834 137.384083,25.3119115 137.401942,30.3569891 C137.404799,31.1258627 137.487258,31.9019599 137.616966,32.661235 C137.811784,33.8026709 138.773832,34.4811005 139.985397,34.6092461 C140.808449,34.6963257 141.610683,34.5873772 142.422203,34.5845075 C142.58763,34.5839138 142.753159,34.5844086 142.94665,34.5844086 C142.967979,34.7557971 142.996962,34.8820626 142.997268,35.008427 C143.000534,36.0801003 143.001452,37.1518725 142.996758,38.2234468 C142.994819,38.6598346 142.988185,38.6636938 142.555177,38.7071346 C141.392189,38.8239995 140.238487,39.032199 139.059782,38.9957838 C137.868831,38.9591708 136.690943,38.8656591 135.544283,38.5198145 C133.754999,37.9802176 132.684674,36.8243343 132.321878,35.0446443 C132.08083,33.8619445 131.99929,32.6689534 132.000005,31.4639889 C132.006332,21.8190285 132.002352,12.1740681 132.001535,2.52890984 L132.001535,2 L137.39439,2 L137.39439,2.59590179 C137.39439,4.98663365 137.394186,7.37726655 137.394186,9.7679984 C137.394186,9.88327997 137.391022,9.9988584 137.395615,10.11414 C137.413168,10.562897 137.465622,10.6227642 137.941697,10.6246443 C139.387064,10.6304826 140.83233,10.6273161 142.277595,10.6263266 C143.00033,10.6258318 142.999922,10.6245454 142.999615,11.3230626 C142.999207,12.2299772 142.999411,13.1367929 142.999411,14.0436086 L142.999411,14.6586085 Z" id="Fill-8"></path>
                <path d="M150.894398,10.4419425 L150.894398,11.0505403 C150.894398,12.5613056 150.892336,14.0721716 150.895969,15.5829368 C150.897049,16.0002208 151.065059,16.1693709 151.37211,16.0364888 C151.495343,15.9831949 151.588823,15.807295 151.651569,15.6664541 C151.847662,15.2254952 152.00104,14.7637829 152.209996,14.3299769 C152.924747,12.8463119 153.979445,11.6701193 155.391175,10.8732299 C156.324014,10.3465374 157.318912,9.97076021 158.420251,10.0017895 C159.18734,10.0233489 159.956196,9.98063318 160.694415,10.2722887 C160.887169,10.3483508 161.000976,10.4378119 160.999994,10.6601552 C160.995084,11.8855111 160.994888,13.1108671 160.989978,14.3361223 C160.989782,14.3815581 160.955316,14.4268931 160.916627,14.5220967 C160.720927,14.5098059 160.51315,14.5011419 160.306256,14.4831086 C158.137355,14.2942126 156.243495,14.9645668 154.610241,16.421333 C152.913946,17.9342139 151.917477,19.8685093 151.529907,22.1137023 C151.337153,23.2306571 151.227569,24.3766264 151.218142,25.5105063 C151.182596,29.7741164 151.203708,34.0382302 151.20361,38.3021425 L151.20361,38.9849891 C149.473831,39.0088655 147.784901,38.9894218 146.046678,39 C146.028315,38.7356463 146.000919,38.5249894 146.000919,38.3144333 C145.99925,31.0288897 146.000232,23.7432454 146.000919,16.4577018 C146.001017,14.6279793 146.000821,12.7982567 146.001803,10.9684335 C146.002098,10.4155474 146.003669,10.4123236 146.550804,10.4113161 C147.827026,10.4090998 149.103248,10.4093012 150.379471,10.4110139 C150.523619,10.4112154 150.667767,10.4278382 150.894398,10.4419425" id="Fill-10"></path>
                <path d="M98.4819454,28.3006122 C98.4267678,30.2944397 97.9648505,32.1798728 96.7713455,33.7950303 C95.5946462,35.3872505 94.0396702,36.4082688 92.2128867,36.9920558 C90.8759007,37.4193408 89.5034573,37.6553117 88.1066309,37.5963443 C86.6902787,37.5366665 85.3179325,37.2494417 84.1064559,36.4030926 C82.9669626,35.6071855 82.2449921,34.5328835 81.9284015,33.1213206 C81.2776372,30.2203499 82.7737442,27.7572194 85.078668,26.6407978 C86.2269042,26.0847183 87.4375065,25.7366993 88.6805547,25.4819522 C90.0172493,25.2079214 91.3700697,25.1370794 92.7199758,25.0034133 C94.5515193,24.822147 96.3832572,24.6043433 98.1184344,23.8935887 C98.1751662,23.8703469 98.2421952,23.8746096 98.3610988,23.8583707 C98.384219,23.9859473 98.4100592,24.0659236 98.4117106,24.146509 C98.4411451,25.5311762 98.520317,26.9177718 98.4819454,28.3006122 M100.995825,33.2244374 C100.974842,28.1196504 100.942299,23.0151679 100.925104,17.910381 C100.921607,16.8830701 100.721492,15.9009236 100.389261,14.9450638 C99.9878639,13.7900749 99.3185452,12.826603 98.3909219,12.0704811 C96.9580553,10.9027042 95.2848556,10.3580934 93.5145125,10.1412032 C92.1991895,9.98003247 90.8777464,9.94867118 89.5469776,10.0896448 C88.0340647,10.249902 86.5947866,10.6248167 85.2375948,11.3344548 C82.9339338,12.5390737 81.3684663,14.3984231 80.6993419,17.0213034 C80.5481866,17.6136158 80.3600196,18.2192238 80.5035006,18.9211485 C81.2739457,18.9211485 82.0010648,18.9180022 82.7281839,18.9230769 C82.953654,18.9244978 83.0365174,18.8096078 83.0638147,18.5880489 C83.1068493,18.237188 83.1528953,17.8835869 83.2367301,17.5417589 C83.5843096,16.1251214 84.2618855,14.9275055 85.396133,14.0337593 C86.7653706,12.9547885 88.3569697,12.5670858 90.0179293,12.4275331 C90.7094939,12.3694791 91.4091214,12.4093658 92.1049603,12.4148465 C93.179756,12.4231689 94.2189,12.621283 95.2323981,13.0085798 C96.7681397,13.5956145 97.6979973,14.7225914 98.1325202,16.3537848 C98.4148192,17.4136749 98.4287107,18.4872665 98.4078249,19.5699924 C98.3791675,21.0599078 97.7496777,21.9244241 96.3556684,22.3112134 C95.702767,22.4923782 95.037334,22.6332503 94.3706381,22.7488506 C93.386283,22.9194602 92.3998879,23.0951443 91.4072757,23.1896342 C89.8003279,23.3424825 88.1933801,23.4644769 86.6028496,23.7779884 C85.2456577,24.0455236 83.9397576,24.4370831 82.7179838,25.1234794 C80.8906174,26.1502827 79.6692322,27.7071834 79.2259664,29.8084918 C78.8678955,31.5053511 78.9187015,33.2423001 79.4984539,34.9048549 C79.8614792,35.9461717 80.4258829,36.874121 81.2161453,37.6304459 C82.6971951,39.0476924 84.5030928,39.7043513 86.4522771,39.8909967 C88.1600599,40.0546032 89.8661912,39.9606208 91.5405565,39.451634 C93.209579,38.9442711 94.731332,38.156585 96.0671522,37.0061633 C96.7639626,36.4061374 97.3895667,35.7160874 98.0490739,35.0687658 C98.1774005,34.9427117 98.3135957,34.8255889 98.5310028,34.6268659 C98.5350829,35.6441289 98.4705796,36.5222453 98.6943011,37.3814839 C98.8916966,38.1391282 99.1189153,38.8768799 99.7111992,39.4106309 C100.064316,39.729014 100.458621,39.9718865 100.997282,40 L100.997282,39.4130667 C100.997282,37.3502241 101.004276,35.2871785 100.995825,33.2244374" id="Fill-12"></path>
                <path d="M71.7065997,26.8352869 C71.5423234,27.9062273 71.331994,28.983514 70.9997532,30.0127076 C70.3101517,32.1485395 69.0810701,33.9262014 67.1255047,35.1227789 C66.0515286,35.7801182 64.8811599,36.1841998 63.602935,36.2073044 C63.0431197,36.2174188 62.4820086,36.2327888 61.9234892,36.2062136 C59.8503984,36.1077466 58.2393347,35.1088964 56.9341956,33.5783441 C55.5789164,31.9892867 54.871073,30.097292 54.4734407,28.0792635 C54.1492742,26.4343784 54.0474987,24.7659921 54.1735967,23.100184 C54.3674785,20.5405374 54.9162291,18.0611121 56.4493414,15.9284533 C57.5665795,14.3745981 58.9988134,13.1921014 60.9488963,12.7981342 C61.5467902,12.6773559 62.1592376,12.6271804 62.4932727,12.5816654 C66.1146275,12.666944 68.5925277,14.1602117 70.2083762,17.0729712 C70.8305925,18.1946821 71.2663034,19.3819385 71.4522107,20.6499121 C71.6190787,21.7877863 71.8190412,22.927247 71.8778537,24.0724591 C71.924804,24.9891047 71.8462545,25.9253843 71.7065997,26.8352869 M75,0 L71.9102504,0 C71.9083565,4.50965062 71.9066619,9.0194004 71.9046682,13.5291502 C71.9043692,14.173301 71.9068612,14.8176501 71.8992854,15.4618009 C71.8978898,15.5755388 71.8527338,15.6886816 71.8277136,15.8022211 C71.6607459,15.6801538 71.5826947,15.5585822 71.5313584,15.4266979 C70.7714809,13.4789746 69.411716,12.0619619 67.6017862,11.0523031 C66.3843675,10.3733467 65.072151,10.0104169 63.677896,9.90243041 C61.971536,9.7702486 60.3086375,9.91194988 58.6919916,10.5048344 C56.5758381,11.2809687 54.9489248,12.6670432 53.6817647,14.4873443 C52.6116762,16.0246396 51.9673305,17.7452838 51.554048,19.5635026 C51.260484,20.854779 51.0901271,22.1633095 51.0241375,23.4782855 C50.9343238,25.2620954 51.0993975,27.0329151 51.4485843,28.7906456 C51.7791305,30.4534789 52.2908989,32.0439245 53.1319176,33.5210289 C53.9951655,35.0369054 55.1243655,36.3154892 56.590591,37.2850869 C57.5232177,37.9017701 58.5267185,38.3439296 59.6181389,38.6202917 C60.6875296,38.8911008 61.7759596,39.0168372 62.8623959,38.9981949 C64.1922562,38.9753878 65.4894207,38.6709631 66.7198978,38.1438224 C68.9981345,37.1674818 70.7646029,35.6486305 71.8097708,33.3689157 C71.852036,33.2766959 71.9324796,33.2019284 71.9951797,33.1189305 C72.0331586,33.1263676 72.0712372,33.1339038 72.1093158,33.1413409 C72.1210783,33.2736219 72.1430084,33.4058037 72.1431081,33.5380846 C72.1437062,34.9585681 72.1376255,36.3791507 72.1410147,37.7996341 C72.1421112,38.2244404 72.1753054,38.2531972 72.5936716,38.2596426 C73.0419425,38.2663856 73.4904127,38.2597418 73.9387833,38.2593452 C74.2657409,38.2590477 74.5925988,38.259246 74.9600274,38.259246 C74.9755779,38.016797 74.9965111,37.8402901 74.9968102,37.6636841 C74.9989035,36.2100809 74.9968102,34.7563785 74.9969099,33.3027752 C74.9979067,22.2016849 74.9989035,11.100892 75,0" id="Fill-14"></path>
                <path d="M43.2920995,31.581258 C42.2861069,33.4552801 40.8883969,34.9173707 38.9057418,35.7356085 C37.5975812,36.2753435 36.2401148,36.3649539 34.8490309,36.1820815 C32.0311993,35.8117971 30.1493968,34.1287399 28.7886174,31.74005 C27.8870827,30.1572617 27.4045493,28.4295967 27.1787759,26.6183413 C26.9844763,25.0595347 26.9837942,23.4985568 27.2254507,21.9579091 C27.5459378,19.9157195 28.1894457,17.9723183 29.4007489,16.2714969 C30.5234771,14.6950248 31.9501274,13.4724546 33.8371918,13.0143362 C37.1039393,12.2214617 40.0575078,13.0699972 42.2711008,15.8639077 C43.2189204,17.0602265 43.835047,18.4190874 44.2825988,19.8744671 C44.7490543,21.3912318 44.9230859,22.9462883 44.976874,24.484074 C44.9059361,26.9972118 44.472416,29.3826449 43.2920995,31.581258 M47.9626958,23.4382573 C47.8430369,21.5281147 47.5446691,19.6650472 46.8723184,17.8721481 C46.0064476,15.5634957 44.6704185,13.607561 42.6973127,12.118232 C41.3330254,11.0883045 39.812246,10.4168185 38.1455957,10.1401908 C37.2884947,9.99797866 36.4020636,9.99807735 35.5290795,10.0005446 C33.7312722,10.0056765 32.0425025,10.4568866 30.4655965,11.3494379 C28.1530998,12.6580657 26.5339038,14.5946572 25.4677894,17.0156186 C24.4154144,19.405098 23.9657189,21.9263284 24.0026495,24.5393403 C23.9682524,26.541758 24.2693486,28.4929556 24.8723206,30.3982624 C25.4737334,32.2986347 26.3870585,34.0195889 27.7352679,35.4879956 C29.1761447,37.0572634 30.9259131,38.1474905 32.9739519,38.6377818 C35.0943902,39.1452452 37.234999,39.1310338 39.3612838,38.5220186 C41.0539511,38.0372539 42.5149985,37.1736187 43.7874953,35.9634834 C45.6178483,34.2231861 46.708713,32.0431266 47.3440357,29.6239416 C47.8750954,27.6022794 48.0943402,25.54124 47.9626958,23.4382573" id="Fill-17"></path>
                <path d="M166.215897,22.3094197 C166.238748,21.877914 166.258558,21.4394067 166.350354,21.020004 C166.541987,20.1445897 166.787363,19.2816785 167.201227,18.4817826 C168.078188,16.7866677 169.319192,15.4994525 171.116754,14.8241872 C172.262923,14.3935818 173.462638,14.2791538 174.635482,14.4819034 C176.735401,14.8449923 178.283861,16.0916975 179.364125,17.9502525 C180.110552,19.2343669 180.436543,20.6540144 180.637395,22.1120714 C180.655342,22.2429034 180.67682,22.3901394 180.635629,22.5073681 C180.600029,22.609093 180.490973,22.7158192 180.390351,22.7533283 C180.274626,22.7965389 180.132422,22.7674318 180.00179,22.7674318 C177.828316,22.7677319 175.654843,22.7676318 173.48137,22.7677319 L166.911718,22.7677319 C166.830122,22.7677319 166.74833,22.7706326 166.666636,22.7680319 C166.250713,22.7548287 166.194419,22.7139187 166.215897,22.3094197 M166.930058,26.3339049 C173.025139,26.3334048 179.120122,26.3333048 185.215301,26.3332047 L185.871403,26.3332047 C185.920537,25.7800693 186.020571,25.2838478 185.996249,24.794328 C185.946918,23.8002847 185.857182,22.8064414 185.735377,21.8187996 C185.500494,19.9150335 184.867635,18.1396989 183.971159,16.4597876 C183.091648,14.8114841 181.91341,13.4217439 180.439387,12.2995692 C179.168177,11.3317322 177.760156,10.6419634 176.209539,10.2959787 C174.64882,9.94779344 173.068192,9.90458286 171.491194,10.1781498 C169.743353,10.4814241 168.139973,11.1627909 166.716947,12.2444557 C164.274266,14.1012102 162.721491,16.5899195 161.812854,19.5267385 C161.373687,20.9461859 161.160282,22.4029426 161.039359,23.883205 C160.961588,24.8354381 161.010918,25.770467 161.084865,26.7199994 C161.188233,28.0507252 161.36486,29.3595456 161.708407,30.6459605 C162.247999,32.6654549 163.134669,34.4929023 164.50758,36.0705885 C166.489518,38.3483461 169.000359,39.5942512 171.926732,39.8990258 C173.525404,40.0654665 175.144574,40.0504628 176.74668,39.6685694 C178.530218,39.2435653 180.142425,38.4957822 181.553584,37.3148931 C183.156082,35.9739649 184.272436,34.2733486 184.986499,32.2972648 C185.157438,31.824449 185.269535,31.3297279 185.415956,30.8198031 C185.279734,30.7994981 185.216674,30.7818938 185.153908,30.7817938 C183.732157,30.7791932 182.310406,30.7840944 180.88895,30.7727916 C180.59542,30.770491 180.458609,30.8960218 180.35122,31.1659878 C179.980998,32.0965156 179.503682,32.963828 178.818158,33.6996081 C177.649629,34.9535151 176.15099,35.4617395 174.524367,35.6276801 C173.330045,35.74961 172.151121,35.5909711 171.020448,35.1578651 C169.440114,34.5523168 168.26678,33.4579489 167.456901,31.9646834 C166.634763,30.4489123 166.30426,28.7908064 166.21168,27.0788873 C166.171569,26.3374058 166.193733,26.3339049 166.930058,26.3339049" id="Fill-19"></path>
                <path d="M205.812828,28.5474191 C205.80656,31.4126484 204.464575,33.4345605 202.098399,34.7830767 C201.089486,35.3580704 199.984109,35.6036701 198.838676,35.7357523 C198.14746,35.81559 197.466626,35.8127495 196.79862,35.6946668 C195.134824,35.4008804 193.609703,34.5370712 193.203866,32.2529222 C193.017106,31.2019459 193.124638,30.2120398 193.520192,29.2409011 C193.902329,28.3029352 194.605493,27.6959862 195.461433,27.2631179 C196.270463,26.8540892 197.130811,26.6387203 198.027002,26.518 C199.088603,26.3748603 200.138354,26.1385935 201.196332,25.9627883 C202.420209,25.7596942 203.619603,25.4688497 204.762783,24.9631434 C205.085768,24.8202066 205.39612,24.6470389 205.784917,24.4512489 C205.797354,24.6818348 205.81322,24.8418145 205.813416,25.0016927 C205.81508,26.1836353 205.815472,27.3655779 205.812828,28.5474191 M210.987056,18.2199534 C210.984902,17.4336486 210.891081,16.6353733 210.737032,15.8645897 C210.498073,14.6683432 209.938382,13.6173669 209.102029,12.7481811 C208.025346,11.6290333 206.680031,10.9929694 205.23453,10.5876943 C203.911543,10.2170121 202.545369,10.1273342 201.182034,10.0264973 C200.216212,9.95507957 199.263121,10.0409025 198.304154,10.1314935 C196.651426,10.2874153 195.067054,10.6845748 193.591977,11.4829516 C191.982927,12.3535577 190.741813,13.5961648 189.998594,15.3426521 C189.524106,16.4580464 189.344691,17.6311632 189.285539,18.8332935 C189.279369,18.960912 189.314626,19.0907624 189.331862,19.2292356 L194.090753,19.2292356 C194.111711,19.0680386 194.12885,18.9692306 194.136684,18.8697124 C194.237556,17.5928168 194.65681,16.4813789 195.645647,15.6452643 C196.635952,14.8079324 197.812821,14.4826978 199.040028,14.3964691 C200.306115,14.3077042 201.571908,14.3579197 202.828397,14.6640825 C205.498167,15.3146531 206.53313,17.6118885 205.871784,20.1006533 C205.748779,20.5636509 205.480833,20.9396083 205.080774,21.2219314 C204.426381,21.6837117 203.67376,21.8605314 202.925841,21.9963671 C201.565052,22.24359 200.18879,22.3984974 198.823007,22.6186343 C197.68443,22.8020479 196.541936,22.979172 195.418538,23.2395828 C193.922797,23.5864253 192.467894,24.0664658 191.168118,24.9584769 C190.139521,25.6642339 189.321971,26.548738 188.789309,27.7110002 C188.385039,28.5927653 188.225897,29.5303254 188.091238,30.4876675 C187.882052,31.9743526 188.042565,33.4218798 188.470437,34.8315677 C189.075471,36.8246693 190.342244,38.2582984 192.178892,39.1013113 C193.811251,39.8506899 195.537332,40.0896957 197.323936,39.9712072 C198.405026,39.8994852 199.452133,39.7131296 200.468979,39.3362593 C202.188204,38.6989781 203.675621,37.6971014 204.895875,36.2841672 C205.302691,35.8129524 205.692663,35.3260136 206.136891,34.7906852 C206.172343,34.9669976 206.202212,35.0732111 206.21416,35.1814536 C206.269493,35.6824934 206.301027,36.1872866 206.376045,36.6850802 C206.54831,37.8288792 207.185271,38.6138652 208.184978,39.0943115 C208.951994,39.4628634 209.780905,39.5450343 210.608249,39.6233503 C210.714997,39.6333934 210.825858,39.5966701 210.998613,39.5728304 L210.998613,38.6032134 C210.998417,31.8087934 211.006153,25.014272 210.987056,18.2199534" id="Fill-21"></path>
            </g>
        </g>
    </g>
</svg>