<?xml version="1.0" encoding="UTF-8"?>
<svg width="53px" height="62px" viewBox="0 0 53 62" version="1.1" xmlns="http://www.w3.org/2000/svg" xmlns:xlink="http://www.w3.org/1999/xlink">
    <!-- Generator: Sketch 53 (72520) - https://sketchapp.com -->
    <title>Group 2</title>
    <desc>Created with Sketch.</desc>
    <g id="Page-1" stroke="none" stroke-width="1" fill="none" fill-rule="evenodd">
        <g id="Login" transform="translate(2.000000, 2.000000)" stroke="#FFFFFF" stroke-width="3">
            <g id="Group-2">
                <path d="M33.142,31.9212 C45.118,34.4012 49.299,39.8582 49.299,39.8582 L45.614,57.7162 L24.65,57.7162 L3.685,57.7162 L0,39.8582 C0,39.8582 4.181,34.4012 16.158,31.9212 C16.158,31.9212 21.685,30.9032 24.65,30.9032 C27.614,30.9032 33.142,31.9212 33.142,31.9212 Z" id="Stroke-1"></path>
                <path d="M24.6499,25.185 C31.6049,25.185 37.2429,19.547 37.2429,12.592 C37.2429,5.637 31.6049,0 24.6499,0 C17.6949,0 12.0569,5.637 12.0569,12.592 C12.0569,19.547 17.6949,25.185 24.6499,25.185 Z" id="Stroke-3"></path>
            </g>
        </g>
    </g>
</svg>