<?xml version="1.0" encoding="UTF-8"?>
<svg width="39px" height="39px" viewBox="0 0 39 39" version="1.1" xmlns="http://www.w3.org/2000/svg" xmlns:xlink="http://www.w3.org/1999/xlink">
    <!-- Generator: Sketch 53 (72520) - https://sketchapp.com -->
    <title>ig</title>
    <desc>Created with Sketch.</desc>
    <g id="Page-1" stroke="none" stroke-width="1" fill="none" fill-rule="evenodd">
        <g id="Startseite" transform="translate(-308.000000, -5712.000000)" fill-rule="nonzero">
            <g id="Footer" transform="translate(0.000000, 5490.000000)">
                <g id="ig" transform="translate(308.000000, 222.000000)">
                    <circle id="Oval-3-Copy" fill="#FFFFFF" cx="19.5" cy="19.5" r="19.5"></circle>
                    <path d="M19.5,9.18701613 C22.8590323,9.18701613 23.2574194,9.19959677 24.5846775,9.26040322 C27.9940323,9.41556452 29.5865323,11.0332258 29.7416935,14.4174194 C29.8025,15.7436291 29.8140322,16.1420161 29.8140322,19.5010483 C29.8140322,22.8611291 29.8014516,23.2584677 29.7416935,24.5846775 C29.5854839,27.9657258 27.9971775,29.5865323 24.5846775,29.7416935 C23.2574194,29.8025 22.8611291,29.8150807 19.5,29.8150807 C16.1409677,29.8150807 15.7425806,29.8025 14.416371,29.7416935 C10.998629,29.5854839 9.41451612,27.9604839 9.25935484,24.583629 C9.19854839,23.2574194 9.18596775,22.8600806 9.18596775,19.5 C9.18596775,16.1409677 9.19959677,15.7436291 9.25935484,14.416371 C9.41556452,11.0332258 11.003871,9.41451612 14.416371,9.25935484 C15.7436291,9.19959677 16.1409677,9.18701613 19.5,9.18701613 Z M19.5,6.91935484 C16.0833065,6.91935484 15.6555646,6.93403226 14.313629,6.99483871 C9.74475806,7.20451613 7.20556452,9.73951613 6.99588709,14.3125807 C6.93403226,15.6555646 6.91935484,16.0833065 6.91935484,19.5 C6.91935484,22.9166935 6.93403226,23.3454839 6.99483871,24.6874193 C7.20451613,29.2562903 9.73951613,31.7954838 14.3125807,32.0051613 C15.6555646,32.0659677 16.0833065,32.0806452 19.5,32.0806452 C22.9166935,32.0806452 23.3454839,32.0659677 24.6874193,32.0051613 C29.2520968,31.7954838 31.7975806,29.2604838 32.0041129,24.6874193 C32.0659677,23.3454839 32.0806452,22.9166935 32.0806452,19.5 C32.0806452,16.0833065 32.0659677,15.6555646 32.0051613,14.313629 C31.7996775,9.74895162 29.2615323,7.20556452 24.6884678,6.99588709 C23.3454839,6.93403226 22.9166935,6.91935484 19.5,6.91935484 Z M19.5,13.0398387 C15.9323388,13.0398387 13.0398387,15.9323388 13.0398387,19.5 C13.0398387,23.0676612 15.9323388,25.9612096 19.5,25.9612096 C23.0676612,25.9612096 25.9601613,23.0687097 25.9601613,19.5 C25.9601613,15.9323388 23.0676612,13.0398387 19.5,13.0398387 Z M19.5,23.6935483 C17.1841129,23.6935483 15.3064517,21.8169355 15.3064517,19.5 C15.3064517,17.1841129 17.1841129,15.3064517 19.5,15.3064517 C21.8158871,15.3064517 23.6935483,17.1841129 23.6935483,19.5 C23.6935483,21.8169355 21.8158871,23.6935483 19.5,23.6935483 Z M26.2159677,11.2754032 C25.3814516,11.2754032 24.7052419,11.9516129 24.7052419,12.7850806 C24.7052419,13.6185484 25.3814516,14.2947581 26.2159677,14.2947581 C27.0494354,14.2947581 27.7245968,13.6185484 27.7245968,12.7850806 C27.7245968,11.9516129 27.0494354,11.2754032 26.2159677,11.2754032 Z" id="Shape" fill="#009EE2"></path>
                </g>
            </g>
        </g>
    </g>
</svg>