<?xml version="1.0" encoding="UTF-8"?>
<svg width="39px" height="39px" viewBox="0 0 39 39" version="1.1" xmlns="http://www.w3.org/2000/svg" xmlns:xlink="http://www.w3.org/1999/xlink">
    <!-- Generator: Sketch 53 (72520) - https://sketchapp.com -->
    <title>tw</title>
    <desc>Created with Sketch.</desc>
    <g id="Page-1" stroke="none" stroke-width="1" fill="none" fill-rule="evenodd">
        <g id="Startseite" transform="translate(-169.000000, -5712.000000)" fill-rule="nonzero">
            <g id="Footer" transform="translate(0.000000, 5490.000000)">
                <g id="tw" transform="translate(169.000000, 222.000000)">
                    <circle id="Oval-3-Copy-2" fill="#FFFFFF" cx="19.5" cy="19.5" r="19.5"></circle>
                    <path d="M32.7096774,12.4852419 C31.7839517,12.8962096 30.7890322,13.1729838 29.7448387,13.2977419 C30.8110483,12.6592742 31.6298388,11.6475806 32.0145968,10.4419355 C31.0175806,11.0332258 29.9125807,11.4630645 28.7362904,11.6947581 C27.7958871,10.6914516 26.4529033,10.0645161 24.9683871,10.0645161 C21.6355645,10.0645161 19.1865322,13.1740323 19.9392742,16.4020161 C15.6503226,16.1870968 11.8467742,14.132258 9.30024194,11.0091129 C7.94782258,13.3291935 8.59887097,16.3642742 10.8969355,17.9012097 C10.0519355,17.8739516 9.25516129,17.642258 8.56008065,17.2554032 C8.50346775,19.6467742 10.2175806,21.8840323 12.7001613,22.3820161 C11.973629,22.5791129 11.1779032,22.625242 10.3685484,22.4700806 C11.0248387,24.5207258 12.9308064,26.0125807 15.191129,26.0545161 C13.0209677,27.7560484 10.2867742,28.5161291 7.5483871,28.1932258 C9.83282258,29.6578226 12.5470968,30.512258 15.4616129,30.512258 C25.0459677,30.512258 30.4608871,22.4176613 30.1337903,15.1575806 C31.1423388,14.4289517 32.0177419,13.52 32.7096774,12.4852419 Z" id="Shape" fill="#009EE2"></path>
                </g>
            </g>
        </g>
    </g>
</svg>